# xmcd
#
# Track frame offsets: 
#        150
#        13639
#        28174
#        41251
#        58933
#        76020
#        93973
#        113087
#        130586
#        148409
#        163018
#        178691
#
# Disc length: 2621 seconds
#
# Revision: 2
# Processed by: cddbd v1.5.2PL0 Copyright (c) Steve Scherf et al.
# Submitted via: ExactAudioCopyFreeDBPlugin 1.0
#
DISCID=970a3b0c
DTITLE=Alex Hepburn - together alone
DYEAR=2013
DGENRE=Blues
TTITLE0=miss misery
TTITLE1=bad girl
TTITLE2=broken record
TTITLE3=pain is
TTITLE4=get heavy
TTITLE5=love to love you
TTITLE6=reckless
TTITLE7=angelina
TTITLE8=under
TTITLE9=hold me
TTITLE10=two point four
TTITLE11=under (Radio Version)
EXTD=2013
EXTT0=
EXTT1=
EXTT2=
EXTT3=
EXTT4=
EXTT5=
EXTT6=
EXTT7=
EXTT8=
EXTT9=
EXTT10=
EXTT11=
PLAYORDER=
